<svg xmlns="http://www.w3.org/2000/svg" xmlns:xlink="http://www.w3.org/1999/xlink" width="654.66" height="169.74" viewBox="0 0 654.66 169.74"><defs><clipPath id="a"><rect width="654.66" height="169.74" transform="translate(120 68)" fill="none"/></clipPath></defs><g transform="translate(-120 -68)" clip-path="url(#a)"><path d="M131.92,125.83h22.33v19.89h16v15.83h-16v32.61c0,6.9,2.16,8.25,9.6,8.25h6.36v16.1H156c-18,0-24.08-3.52-24.08-20.43V161.55h-11.5V145.72h11.5Z"/><path d="M245.71,195.65c-6.5,17.18-21.78,24.62-36.29,24.62-23.68,0-39.91-14.34-39.91-38.56,0-23.27,17.72-38.15,39-38.15,24.22,0,39,18.26,37.48,44.24h-54c.67,10.42,8.65,15.15,16.77,15.15,8.53,0,13.8-3,16.37-7.3Zm-53.44-21.38h31.52c-.41-9.2-6.76-13.67-15.29-13.67-7.98,0-15.02,4.06-16.23,13.67"/><path d="M322.56,172.42H301.72c-2-8.53-7.3-11.51-13.93-11.51-8,0-15.83,5.42-15.83,21,0,15.83,7.85,21.1,15.83,21.1,8.25,0,13.26-4.33,14.88-11.23h20.84c-5.01,21.64-22.46,28.49-37.09,28.49-24,0-37.21-15.42-37.21-38.56s15.21-38.15,37.21-38.15c15.17,0,31.81,6.86,36.14,28.86"/><path d="M348.42,155.33c3.24-5.41,11.09-11.23,22.59-11.23,18.67,0,24.49,11,24.49,30.71v43.7H373.17V180.36c0-10.42-.28-18.94-11.1-18.94-9.65,0-13.65,6.22-13.65,19.75v37.34H326.08V120.42h22.34Z"/><path d="M446.77,167.1c-1.49-5.41-7.17-7-14.21-7-7.71,0-11.63,1.76-11.63,5.41,0,3.39,2.57,5.28,8.93,6.5l13.56,2.41c17.45,3.25,25.84,8.389,25.84,21.25,0,16.37-15,24.62-35.18,24.62-19.35,0-33.15-8.25-35.72-25.44h20.7c2,7,7.58,9.2,15.29,9.2,8,0,13.53-2.16,13.53-6.491,0-3.25-2.84-5.279-11.36-6.759l-13-2.17c-14.1-2.321-23.7-9.36-23.7-22.34,0-14.48,15.29-22.46,33.28-22.46,16.65,0,31.66,6.63,34.51,23.27Z"/><path d="M480.861,125.83h22.328v19.89h16v15.83h-16v32.61c0,6.9,2.16,8.25,9.61,8.25h6.351v16.1h-14.2c-18,0-24.09-3.52-24.09-20.43V161.55h-11.5V145.72h11.5Z"/><path d="M570.03,170.21c0-8.66-4.2-11.64-12.311-11.64-7.179,0-12.049,3.66-13,10.69h-20.83c1.08-13.66,14.071-25.84,35.721-25.84,21,0,32.88,8.52,32.47,30.58l-.271,15.83v7.59c0,8,.54,16.64,1.63,21.1h-21.92l-.269-8.79c-5.42,7.709-14.08,10.55-24.491,10.55-13.8,0-25.169-8.12-25.169-21.38,0-17.86,20.16-23.67,48.44-25.84Zm.54,16c-15.561,1.49-26,3.12-26,11.1,0,4.73,4.47,7.85,10.29,7.85,8.92,0,15.689-3.79,15.689-17.19Z"/><path d="M642.96,167.1a33.288,33.288,0,0,0-6.09-.41c-10.83,0-16.37,3.93-16.37,15.289V218.51H598.17V145.72h21.51v13.8c3.39-8.66,9.48-13.93,19.89-14.34h1.63a7.42,7.42,0,0,1,1.76.13Z"/><path d="M692.34,167.1c-1.49-5.41-7.17-7-14.21-7-7.71,0-11.63,1.76-11.63,5.41,0,3.39,2.57,5.28,8.93,6.5l13.53,2.41c17.45,3.25,25.84,8.389,25.84,21.25,0,16.37-15,24.62-35.18,24.62-19.34,0-33.15-8.25-35.719-25.44h20.7c2,7,7.58,9.2,15.29,9.2,8,0,13.53-2.16,13.53-6.491,0-3.25-2.84-5.279-11.36-6.759l-13-2.17c-14.06-2.321-23.64-9.36-23.64-22.34,0-14.48,15.29-22.46,33.29-22.46,16.64,0,31.66,6.63,34.5,23.27Z"/><rect width="60.21" height="18.811" transform="translate(714.53 218.51)"/></g></svg>